<?xml version="1.0" encoding="UTF-8" standalone="no"?>
<!-- Created with Inkscape (http://www.inkscape.org/) -->

<svg
   width="512"
   height="512"
   viewBox="0 0 512 512"
   version="1.1"
   id="svg1"
   xmlns="http://www.w3.org/2000/svg"
   xmlns:svg="http://www.w3.org/2000/svg">
  <defs
     id="defs1" />
  <g
     id="layer1">
    <g
       id="text1"
       style="font-size:120px;font-family:Lexend;-inkscape-font-specification:'Lexend, @wght=600';font-variation-settings:'wght' 600;fill:#3f51b5;stroke-width:0.042"
       aria-label="EML&#10;Viewer">
      <path
         d="m 61.239973,232.39999 v -84 h 56.759997 v 15.84 H 78.759973 v 52.32 h 40.079997 v 15.84 z m 8.4,-35.16 v -15.36 h 42.599997 v 15.36 z m 67.800027,35.16 v -84 h 16.44 l 30.6,49.8 -10.8,-0.12 30.96,-49.68 h 15.72 v 84 h -17.64 v -28.8 q 0,-10.8 0.48,-19.44 0.6,-8.64 1.92,-17.16 l 2.16,5.64 -24.6,38.16 h -7.92 l -24.12,-37.92 2.04,-5.88 q 1.32,8.04 1.8,16.56 0.6,8.4 0.6,20.04 v 28.8 z m 104.7599,0 v -84 h 18 v 67.8 h 38.04 v 16.2 z"
         id="path4" />
      <path
         d="m 85.119973,362.39999 -33.48,-84 h 19.08 l 17.52,45.48 q 1.44,3.72 2.4,6.6 1.08,2.76 1.8,5.28 0.84,2.4 1.56,4.8 0.72,2.28 1.44,5.04 l -3.48,0.12 q 0.96,-3.72 1.92,-6.84 0.96,-3.24 2.16,-6.72 1.2,-3.48 3,-8.28 l 16.559997,-45.48 h 18.96 l -33.72,84 z m 60.719917,0 v -63.48 h 17.04 v 63.48 z m 8.4,-76.56 q -4.92,0 -7.68,-2.4 -2.76,-2.4 -2.76,-6.84 0,-4.08 2.76,-6.6 2.88,-2.64 7.68,-2.64 4.92,0 7.68,2.52 2.76,2.4 2.76,6.72 0,4.2 -2.88,6.72 -2.76,2.52 -7.56,2.52 z m 56.99997,77.76 q -10.32,0 -18,-4.2 -7.68,-4.2 -12,-11.52 -4.32,-7.32 -4.32,-16.8 0,-7.32 2.4,-13.44 2.4,-6.12 6.72,-10.56 4.32,-4.56 10.2,-6.96 6,-2.52 12.96,-2.52 6.48,0 12,2.4 5.52,2.28 9.48,6.6 4.08,4.2 6.24,9.96 2.16,5.76 1.92,12.6 l -0.12,5.28 h -51 l -2.76,-10.44 h 39.72 l -1.92,2.16 v -2.64 q -0.24,-3.24 -2.16,-5.88 -1.8,-2.64 -4.68,-4.08 -2.88,-1.44 -6.48,-1.44 -5.28,0 -9,2.04 -3.6,2.04 -5.52,6 -1.92,3.96 -1.92,9.6 0,5.76 2.4,9.96 2.52,4.2 6.96,6.6 4.56,2.28 10.68,2.28 4.2,0 7.68,-1.32 3.48,-1.32 7.44,-4.56 l 8.16,11.4 q -3.48,3.12 -7.68,5.28 -4.2,2.04 -8.64,3.12 -4.44,1.08 -8.76,1.08 z m 53.52003,-1.2 -21.24,-63.48 h 17.76 l 12.96,43.2 -2.64,-0.36 14.28,-33.72 h 10.08 l 14.88,33.84 -2.88,0.24 12.96,-43.2 h 17.76 l -21.6,63.48 h -12.36 l -15,-36.12 1.92,0.24 -14.64,35.88 z m 112.56007,1.2 q -10.32,0 -18,-4.2 -7.68,-4.2 -12,-11.52 -4.32,-7.32 -4.32,-16.8 0,-7.32 2.4,-13.44 2.4,-6.12 6.72,-10.56 4.32,-4.56 10.2,-6.96 6,-2.52 12.96,-2.52 6.48,0 12,2.4 5.52,2.28 9.48,6.6 4.08,4.2 6.24,9.96 2.16,5.76 1.92,12.6 l -0.12,5.28 h -51 l -2.76,-10.44 h 39.72 l -1.92,2.16 v -2.64 q -0.24,-3.24 -2.16,-5.88 -1.8,-2.64 -4.68,-4.08 -2.88,-1.44 -6.48,-1.44 -5.28,0 -9,2.04 -3.6,2.04 -5.52,6 -1.92,3.96 -1.92,9.6 0,5.76 2.4,9.96 2.52,4.2 6.96,6.6 4.56,2.28 10.68,2.28 4.2,0 7.68,-1.32 3.48,-1.32 7.44,-4.56 l 8.16,11.4 q -3.48,3.12 -7.68,5.28 -4.2,2.04 -8.64,3.12 -4.44,1.08 -8.76,1.08 z m 40.20007,-1.2 v -63.48 h 16.44 l 0.6,20.4 -2.88,-4.2 q 1.44,-4.92 4.68,-8.88 3.24,-4.08 7.56,-6.36 4.44,-2.28 9.24,-2.28 2.04,0 3.96,0.36 1.92,0.36 3.24,0.84 l -4.56,18.72 q -1.44,-0.72 -3.48,-1.2 -2.04,-0.6 -4.2,-0.6 -2.88,0 -5.4,1.08 -2.4,0.96 -4.2,2.88 -1.8,1.8 -2.88,4.32 -0.96,2.52 -0.96,5.52 v 32.88 z"
         id="path5" />
    </g>
  </g>
</svg>
